<?xml version="1.0" encoding="iso-8859-1"?>
<svg xmlns="http://www.w3.org/2000/svg" xmlns:xlink="http://www.w3.org/1999/xlink" version="1.2" id="Capa_1" x="0px" y="0px" viewBox="0 0 20.614 20.614" xml:space="preserve" width="512px" height="512px">
	<g>
		<path d="M10.6,18.598c5.228-1.834,4.825-5.085,4.825-5.085C9.874,13.513,10.6,18.598,10.6,18.598z" fill="#91DC5A"/>
		<path d="M2.228,15.806c-0.371,0.036-1.859,0.667-1.066,2.551c0.677,1.541,1.762,2.396,3.487,2.239    C4.351,17.083,2.598,15.873,2.228,15.806z" fill="#91DC5A"/>
		<path d="M19.252,1.901c0.181-0.686,0.33-1.331,0.43-1.901h-7.32v0.001c0,0-0.107,0.77-0.302,1.9H19.252z" fill="#91DC5A"/>
		<path d="M11.86,3.015c-0.523,2.791-1.424,6.712-2.559,8.121c-1.533,2.087-6.31,4.101-6.31,4.101     c2.908,2.073,2.464,5.199,2.464,5.199l4.13-1.563c0,0-0.813-6.249,5.906-6.249c0,0,2.183-5.291,3.448-9.608L11.86,3.015     L11.86,3.015z" fill="#91DC5A"/>
	</g>
</svg>
